<svg xmlns="http://www.w3.org/2000/svg" viewBox="0 0 24 24">
  <rect width="24" height="24" rx="6" fill="#18181b" stroke="#eab308" stroke-width="0.5" stroke-opacity="0.3"/>
  <g fill="none" stroke="#eab308" stroke-width="1.5" stroke-linecap="round" stroke-linejoin="round">
    <g transform="translate(12 14) scale(0.75) translate(-12 -12)">
      <path d="M15 14c.2-1 .7-1.7 1.5-2.5 1-.9 1.5-2.2 1.5-3.5A6 6 0 0 0 6 8c0 1 .2 2.2 1.5 3.5.7.9 1.2 1.5 1.5 2.5" />
      <path d="M9 18h6" />
      <path d="M10 22h4" />
    </g>
    <path d="M12 2v2" />
    <path d="M4.5 10.5h-2" />
    <path d="M21.5 10.5h-2" />
    <path d="M6.5 5.5l-1.5-1.5" />
    <path d="M17.5 5.5l1.5-1.5" />
  </g>
</svg>
